<?xml version="1.0" encoding="utf-8"?>
<!-- Generator: Adobe Illustrator 16.0.0, SVG Export Plug-In . SVG Version: 6.00 Build 0)  -->
<?xml-stylesheet href="../css/redux-data-flow.css" type="text/css"?>
<!DOCTYPE svg PUBLIC "-//W3C//DTD SVG 1.1//EN" "http://www.w3.org/Graphics/SVG/1.1/DTD/svg11.dtd">
<svg version="1.1" id="redux-data-flow" xmlns="http://www.w3.org/2000/svg" xmlns:xlink="http://www.w3.org/1999/xlink" x="0px" y="0px"
	 width="840.949px" height="84.177px" viewBox="0 0 840.949 84.177" enable-background="new 0 0 840.949 84.177"
	 xml:space="preserve">
<g class="redux-data-flow-actions">
  <g class="box-dispatch">
    <path class="box-dispatch" d="M279.331,50.339c6.644-3.472,14.457-7.168,24.349-8.886c-9.912-1.677-18.124-4.646-24.447-8.15
      c0.152,2.054,1.55,4.908,4.333,6.893l-114.326,0.661c-0.066,0.001-1.047-0.882-2.28-1.392l0.027,4.683
      c1.228-0.448,2.008,0.711,2.168,0.71l114.521-0.663C280.885,46.211,279.745,48.107,279.331,50.339z"/>
    <path class="box-dispatch" d="M251.331,50.339c6.644-3.472,14.457-7.168,24.349-8.886c-9.912-1.677-18.124-4.646-24.447-8.15
      c0.152,2.054,1.55,4.908,4.333,6.893l-114.326,0.661c-0.066,0.001-1.047-0.882-2.28-1.392l0.027,4.683
      c1.228-0.448,2.008,0.711,2.168,0.71l114.521-0.663C252.885,46.211,251.745,48.107,251.331,50.339z"/>
    <g>
      <path class="box-dispatch" d="M277,54.475c0,2.761-2.808,5.639-5.771,5.639H170.341c-2.963,0-5.341-2.878-5.341-5.639v-25
        c0-2.762,2.377-4.361,5.341-4.361h100.888c2.963,0,5.771,1.6,5.771,4.361V54.475z"/>
      <g>
        <path class="box-dispatch" fill="#FFFFFF" d="M173.994,37.478v5.865h0.188c0.261,0,0.449,0.051,0.564,0.153c0.115,0.103,0.172,0.236,0.172,0.4
          c0,0.161-0.056,0.293-0.169,0.395c-0.112,0.103-0.301,0.153-0.566,0.153h-1.289v-0.269c-0.25,0.147-0.513,0.258-0.787,0.333
          c-0.273,0.075-0.558,0.113-0.851,0.113c-0.827,0-1.493-0.239-1.998-0.717c-0.505-0.478-0.757-1.073-0.757-1.786
          c0-0.745,0.265-1.38,0.795-1.907s1.176-0.79,1.939-0.79c0.287,0,0.567,0.044,0.843,0.131c0.276,0.088,0.548,0.22,0.816,0.395
          v-1.37h-0.188c-0.265,0-0.454-0.051-0.567-0.153c-0.112-0.102-0.169-0.233-0.169-0.395c0-0.165,0.057-0.298,0.169-0.4
          c0.113-0.102,0.302-0.153,0.567-0.153H173.994z M172.893,42.151c0-0.455-0.159-0.84-0.478-1.155s-0.709-0.473-1.171-0.473
          c-0.458,0-0.847,0.158-1.166,0.473s-0.478,0.695-0.478,1.139c0,0.405,0.143,0.737,0.43,0.996c0.287,0.26,0.691,0.39,1.214,0.39
          c0.519,0,0.924-0.13,1.214-0.39C172.748,42.872,172.893,42.545,172.893,42.151z"/>
        <path class="box-dispatch" fill="#FFFFFF" d="M178.613,39.567v3.776h1.321c0.265,0,0.454,0.051,0.566,0.153c0.113,0.103,0.169,0.236,0.169,0.4
          c0,0.161-0.056,0.293-0.169,0.395c-0.112,0.103-0.301,0.153-0.566,0.153h-3.744c-0.265,0-0.454-0.051-0.567-0.153
          c-0.112-0.102-0.169-0.235-0.169-0.4c0-0.161,0.057-0.292,0.169-0.395c0.113-0.102,0.302-0.153,0.567-0.153h1.321v-2.675h-0.886
          c-0.261,0-0.449-0.051-0.564-0.153c-0.115-0.103-0.172-0.236-0.172-0.4c0-0.161,0.056-0.293,0.169-0.395
          c0.112-0.103,0.301-0.153,0.566-0.153H178.613z M178.462,37.478v1.166h-1.311v-1.166H178.462z"/>
        <path class="box-dispatch" fill="#FFFFFF" d="M185.858,40.856c-0.179-0.111-0.367-0.194-0.564-0.25c-0.197-0.055-0.403-0.083-0.618-0.083
          c-0.426,0-0.765,0.07-1.015,0.209c-0.111,0.061-0.167,0.127-0.167,0.199c0,0.083,0.075,0.163,0.226,0.242
          c0.115,0.057,0.371,0.113,0.768,0.167c0.73,0.1,1.239,0.201,1.525,0.301c0.376,0.132,0.666,0.33,0.87,0.591
          s0.306,0.537,0.306,0.827c0,0.394-0.174,0.723-0.521,0.988c-0.498,0.383-1.144,0.575-1.939,0.575
          c-0.319,0-0.613-0.028-0.884-0.083c-0.27-0.055-0.518-0.137-0.744-0.244c-0.054,0.046-0.111,0.083-0.172,0.107
          s-0.124,0.038-0.188,0.038c-0.172,0-0.309-0.056-0.411-0.169c-0.102-0.112-0.153-0.301-0.153-0.566v-0.371
          c0-0.265,0.051-0.454,0.153-0.567c0.103-0.112,0.236-0.169,0.4-0.169c0.132,0,0.244,0.037,0.333,0.11
          c0.089,0.073,0.159,0.199,0.209,0.378c0.168,0.143,0.371,0.251,0.607,0.325c0.236,0.074,0.508,0.11,0.816,0.11
          c0.505,0,0.897-0.079,1.176-0.236c0.132-0.079,0.199-0.161,0.199-0.247c0-0.143-0.095-0.261-0.285-0.354
          s-0.582-0.172-1.176-0.236c-0.884-0.093-1.475-0.272-1.772-0.537c-0.297-0.261-0.446-0.583-0.446-0.967
          c0-0.394,0.167-0.722,0.5-0.983c0.451-0.358,1.042-0.537,1.772-0.537c0.254,0,0.499,0.024,0.733,0.073
          c0.234,0.048,0.459,0.123,0.674,0.223c0.068-0.05,0.132-0.088,0.19-0.113c0.06-0.025,0.114-0.038,0.164-0.038
          c0.15,0,0.276,0.057,0.376,0.169c0.1,0.113,0.15,0.302,0.15,0.567v0.269c0,0.24-0.029,0.403-0.086,0.489
          c-0.115,0.165-0.271,0.247-0.467,0.247c-0.132,0-0.249-0.041-0.349-0.124S185.887,40.993,185.858,40.856z"/>
        <path class="box-dispatch" fill="#FFFFFF" d="M189.903,43.837v1.805h0.661c0.265,0,0.454,0.051,0.567,0.153c0.112,0.103,0.169,0.236,0.169,0.4
          c0,0.161-0.057,0.293-0.169,0.395c-0.113,0.103-0.302,0.153-0.567,0.153h-1.95c-0.265,0-0.454-0.051-0.566-0.153
          c-0.113-0.102-0.169-0.233-0.169-0.395c0-0.165,0.057-0.298,0.172-0.4c0.115-0.102,0.303-0.153,0.564-0.153h0.188v-4.974h-0.188
          c-0.265,0-0.454-0.051-0.566-0.153c-0.113-0.103-0.169-0.236-0.169-0.4c0-0.161,0.056-0.293,0.169-0.395
          c0.112-0.103,0.301-0.153,0.566-0.153h1.289v0.376c0.258-0.175,0.524-0.306,0.8-0.392s0.559-0.129,0.849-0.129
          c0.752,0,1.393,0.255,1.923,0.765c0.53,0.511,0.795,1.095,0.795,1.754c0,0.727-0.313,1.327-0.94,1.799
          c-0.523,0.394-1.112,0.591-1.767,0.591c-0.283,0-0.562-0.041-0.838-0.124S190.175,44.002,189.903,43.837z M193.168,41.947
          c0-0.154-0.061-0.35-0.183-0.588c-0.122-0.238-0.309-0.437-0.562-0.596c-0.252-0.16-0.548-0.239-0.889-0.239
          c-0.548,0-0.983,0.206-1.305,0.618c-0.218,0.283-0.328,0.555-0.328,0.816c0,0.293,0.157,0.579,0.47,0.857
          c0.313,0.277,0.701,0.416,1.163,0.416c0.465,0,0.854-0.138,1.166-0.414S193.168,42.251,193.168,41.947z"/>
        <path class="box-dispatch" fill="#FFFFFF" d="M198.862,44.444v-0.258c-0.276,0.147-0.58,0.257-0.913,0.33c-0.333,0.074-0.636,0.11-0.908,0.11
          c-0.591,0-1.071-0.157-1.439-0.47c-0.369-0.313-0.553-0.66-0.553-1.04c0-0.462,0.235-0.891,0.707-1.287
          c0.471-0.396,1.122-0.593,1.952-0.593c0.333,0,0.718,0.036,1.155,0.107v-0.263c0-0.165-0.071-0.299-0.212-0.403
          c-0.141-0.104-0.411-0.156-0.808-0.156c-0.326,0-0.749,0.064-1.268,0.193c-0.193,0.046-0.344,0.07-0.451,0.07
          c-0.147,0-0.271-0.053-0.374-0.159c-0.102-0.105-0.153-0.241-0.153-0.405c0-0.093,0.018-0.174,0.054-0.242
          s0.086-0.123,0.15-0.164c0.064-0.042,0.199-0.091,0.403-0.148c0.272-0.075,0.55-0.135,0.833-0.18
          c0.283-0.044,0.539-0.067,0.768-0.067c0.684,0,1.215,0.148,1.593,0.443c0.377,0.296,0.566,0.699,0.566,1.211v2.267h0.188
          c0.265,0,0.454,0.051,0.567,0.153c0.112,0.103,0.169,0.236,0.169,0.4c0,0.161-0.057,0.293-0.169,0.395
          c-0.113,0.103-0.302,0.153-0.567,0.153H198.862z M198.862,42.473c-0.44-0.086-0.847-0.129-1.219-0.129
          c-0.448,0-0.833,0.109-1.155,0.328c-0.201,0.14-0.301,0.281-0.301,0.424c0,0.104,0.048,0.188,0.145,0.252
          c0.179,0.118,0.424,0.177,0.736,0.177c0.265,0,0.565-0.052,0.9-0.156c0.334-0.104,0.633-0.245,0.894-0.424V42.473z"/>
        <path class="box-dispatch" fill="#FFFFFF" d="M204.201,40.668v2.208c0,0.236,0.048,0.392,0.145,0.467c0.15,0.118,0.419,0.177,0.806,0.177
          c0.562,0,1.082-0.12,1.558-0.36c0.183-0.093,0.326-0.14,0.43-0.14c0.143,0,0.268,0.054,0.374,0.161
          c0.105,0.107,0.158,0.238,0.158,0.392c0,0.143-0.057,0.267-0.172,0.371c-0.175,0.168-0.522,0.323-1.039,0.464
          c-0.518,0.142-0.954,0.212-1.308,0.212c-0.684,0-1.197-0.148-1.539-0.443c-0.342-0.296-0.513-0.658-0.513-1.088v-2.422h-0.397
          c-0.265,0-0.454-0.051-0.567-0.153c-0.112-0.103-0.169-0.236-0.169-0.4c0-0.161,0.057-0.293,0.169-0.395
          c0.113-0.103,0.302-0.153,0.567-0.153h0.397v-0.994c0-0.265,0.051-0.454,0.153-0.567c0.103-0.112,0.236-0.169,0.4-0.169
          c0.161,0,0.293,0.057,0.395,0.169c0.103,0.113,0.153,0.302,0.153,0.567v0.994h2.036c0.265,0,0.454,0.051,0.567,0.153
          c0.112,0.102,0.169,0.235,0.169,0.4c0,0.161-0.057,0.292-0.169,0.395c-0.113,0.102-0.302,0.153-0.567,0.153H204.201z"/>
        <path class="box-dispatch" fill="#FFFFFF" d="M212.789,39.766c0.132-0.125,0.269-0.188,0.408-0.188c0.158,0,0.287,0.057,0.39,0.169
          c0.102,0.113,0.153,0.3,0.153,0.562v0.709c0,0.265-0.051,0.453-0.153,0.564c-0.103,0.111-0.236,0.167-0.4,0.167
          c-0.15,0-0.277-0.043-0.381-0.129c-0.075-0.064-0.134-0.196-0.177-0.395c-0.043-0.199-0.147-0.347-0.312-0.443
          c-0.29-0.172-0.661-0.258-1.112-0.258c-0.519,0-0.936,0.152-1.249,0.457c-0.313,0.304-0.47,0.689-0.47,1.155
          c0,0.43,0.15,0.769,0.451,1.018c0.301,0.249,0.8,0.374,1.499,0.374c0.458,0,0.833-0.046,1.123-0.14
          c0.172-0.057,0.335-0.155,0.489-0.292c0.154-0.138,0.293-0.207,0.419-0.207c0.15,0,0.28,0.056,0.39,0.167
          c0.109,0.111,0.164,0.242,0.164,0.392c0,0.244-0.167,0.475-0.5,0.693c-0.494,0.326-1.217,0.489-2.17,0.489
          c-0.856,0-1.522-0.177-1.998-0.532c-0.645-0.476-0.967-1.128-0.967-1.955c0-0.784,0.261-1.433,0.784-1.947
          c0.523-0.514,1.205-0.771,2.046-0.771c0.304,0,0.587,0.029,0.849,0.086S212.567,39.651,212.789,39.766z"/>
        <path class="box-dispatch" fill="#FFFFFF" d="M216.538,37.478v2.347c0.229-0.136,0.461-0.237,0.696-0.304c0.234-0.066,0.472-0.099,0.711-0.099
          c0.379,0,0.718,0.064,1.015,0.193s0.543,0.332,0.738,0.61c0.195,0.277,0.293,0.627,0.293,1.05v2.068
          c0.279,0,0.462,0.027,0.548,0.081c0.172,0.111,0.258,0.269,0.258,0.473c0,0.161-0.056,0.293-0.167,0.395
          c-0.111,0.103-0.299,0.153-0.564,0.153h-1.257c-0.261,0-0.448-0.051-0.562-0.153c-0.112-0.102-0.169-0.235-0.169-0.4
          c0-0.201,0.086-0.356,0.258-0.467c0.089-0.057,0.272-0.084,0.548-0.081v-1.993c0-0.283-0.064-0.481-0.193-0.596
          c-0.168-0.154-0.417-0.231-0.747-0.231c-0.244,0-0.459,0.047-0.647,0.143c-0.188,0.095-0.441,0.3-0.76,0.615v2.063
          c0.283,0,0.465,0.027,0.548,0.081c0.175,0.111,0.263,0.269,0.263,0.473c0,0.161-0.057,0.293-0.169,0.395
          c-0.113,0.103-0.302,0.153-0.567,0.153h-1.251c-0.265,0-0.454-0.051-0.566-0.153c-0.113-0.102-0.169-0.235-0.169-0.4
          c0-0.201,0.088-0.356,0.263-0.467c0.086-0.057,0.269-0.084,0.548-0.081v-4.764h-0.188c-0.265,0-0.454-0.051-0.567-0.153
          c-0.112-0.102-0.169-0.235-0.169-0.4c0-0.161,0.057-0.292,0.169-0.395c0.113-0.102,0.302-0.153,0.567-0.153H216.538z"/>
        <path class="box-dispatch" fill="#FFFFFF" d="M223.88,41.77c0-0.626,0.104-1.26,0.312-1.901c0.154-0.473,0.392-0.999,0.714-1.579
          c0.233-0.416,0.405-0.67,0.516-0.766c0.111-0.095,0.234-0.142,0.371-0.142c0.158,0,0.29,0.054,0.397,0.161
          s0.161,0.236,0.161,0.387c0,0.104-0.043,0.228-0.129,0.371c-0.387,0.634-0.668,1.228-0.846,1.783
          c-0.177,0.555-0.266,1.117-0.266,1.687c0,0.573,0.089,1.137,0.266,1.692c0.178,0.555,0.459,1.149,0.846,1.783
          c0.086,0.14,0.129,0.263,0.129,0.371c0,0.15-0.054,0.279-0.161,0.387s-0.24,0.161-0.397,0.161c-0.132,0-0.249-0.043-0.349-0.129
          c-0.143-0.125-0.333-0.406-0.569-0.843c-0.34-0.634-0.573-1.157-0.698-1.568C223.979,42.992,223.88,42.375,223.88,41.77z"/>
        <path class="box-dispatch" fill="#FFFFFF" d="M231.867,44.444v-0.258c-0.276,0.147-0.58,0.257-0.913,0.33c-0.333,0.074-0.636,0.11-0.908,0.11
          c-0.591,0-1.071-0.157-1.439-0.47c-0.369-0.313-0.553-0.66-0.553-1.04c0-0.462,0.235-0.891,0.707-1.287
          c0.471-0.396,1.122-0.593,1.952-0.593c0.333,0,0.718,0.036,1.155,0.107v-0.263c0-0.165-0.071-0.299-0.212-0.403
          c-0.141-0.104-0.411-0.156-0.808-0.156c-0.326,0-0.749,0.064-1.268,0.193c-0.193,0.046-0.344,0.07-0.451,0.07
          c-0.147,0-0.271-0.053-0.374-0.159c-0.102-0.105-0.153-0.241-0.153-0.405c0-0.093,0.018-0.174,0.054-0.242
          s0.086-0.123,0.15-0.164c0.064-0.042,0.199-0.091,0.403-0.148c0.272-0.075,0.55-0.135,0.833-0.18
          c0.283-0.044,0.539-0.067,0.768-0.067c0.684,0,1.215,0.148,1.593,0.443c0.377,0.296,0.566,0.699,0.566,1.211v2.267h0.188
          c0.265,0,0.454,0.051,0.567,0.153c0.112,0.103,0.169,0.236,0.169,0.4c0,0.161-0.057,0.293-0.169,0.395
          c-0.113,0.103-0.302,0.153-0.567,0.153H231.867z M231.867,42.473c-0.44-0.086-0.847-0.129-1.219-0.129
          c-0.448,0-0.833,0.109-1.155,0.328c-0.201,0.14-0.301,0.281-0.301,0.424c0,0.104,0.048,0.188,0.145,0.252
          c0.179,0.118,0.424,0.177,0.736,0.177c0.265,0,0.565-0.052,0.9-0.156c0.334-0.104,0.633-0.245,0.894-0.424V42.473z"/>
        <path class="box-dispatch" fill="#FFFFFF" d="M239.193,39.766c0.132-0.125,0.269-0.188,0.408-0.188c0.158,0,0.287,0.057,0.39,0.169
          c0.102,0.113,0.153,0.3,0.153,0.562v0.709c0,0.265-0.051,0.453-0.153,0.564c-0.103,0.111-0.236,0.167-0.4,0.167
          c-0.15,0-0.277-0.043-0.381-0.129c-0.075-0.064-0.134-0.196-0.177-0.395c-0.043-0.199-0.147-0.347-0.312-0.443
          c-0.29-0.172-0.661-0.258-1.112-0.258c-0.519,0-0.936,0.152-1.249,0.457c-0.313,0.304-0.47,0.689-0.47,1.155
          c0,0.43,0.15,0.769,0.451,1.018c0.301,0.249,0.8,0.374,1.499,0.374c0.458,0,0.833-0.046,1.123-0.14
          c0.172-0.057,0.335-0.155,0.489-0.292c0.154-0.138,0.293-0.207,0.419-0.207c0.15,0,0.28,0.056,0.39,0.167
          c0.109,0.111,0.164,0.242,0.164,0.392c0,0.244-0.167,0.475-0.5,0.693c-0.494,0.326-1.217,0.489-2.17,0.489
          c-0.856,0-1.522-0.177-1.998-0.532c-0.645-0.476-0.967-1.128-0.967-1.955c0-0.784,0.261-1.433,0.784-1.947
          c0.523-0.514,1.205-0.771,2.046-0.771c0.304,0,0.587,0.029,0.849,0.086S238.971,39.651,239.193,39.766z"/>
        <path class="box-dispatch" fill="#FFFFFF" d="M243.807,40.668v2.208c0,0.236,0.048,0.392,0.145,0.467c0.15,0.118,0.419,0.177,0.806,0.177
          c0.562,0,1.082-0.12,1.558-0.36c0.183-0.093,0.326-0.14,0.43-0.14c0.143,0,0.268,0.054,0.374,0.161
          c0.105,0.107,0.158,0.238,0.158,0.392c0,0.143-0.057,0.267-0.172,0.371c-0.175,0.168-0.522,0.323-1.039,0.464
          c-0.518,0.142-0.954,0.212-1.308,0.212c-0.684,0-1.197-0.148-1.539-0.443c-0.342-0.296-0.513-0.658-0.513-1.088v-2.422h-0.397
          c-0.265,0-0.454-0.051-0.567-0.153c-0.112-0.103-0.169-0.236-0.169-0.4c0-0.161,0.057-0.293,0.169-0.395
          c0.113-0.103,0.302-0.153,0.567-0.153h0.397v-0.994c0-0.265,0.051-0.454,0.153-0.567c0.103-0.112,0.236-0.169,0.4-0.169
          c0.161,0,0.293,0.057,0.395,0.169c0.103,0.113,0.153,0.302,0.153,0.567v0.994h2.036c0.265,0,0.454,0.051,0.567,0.153
          c0.112,0.102,0.169,0.235,0.169,0.4c0,0.161-0.057,0.292-0.169,0.395c-0.113,0.102-0.302,0.153-0.567,0.153H243.807z"/>
        <path class="box-dispatch" fill="#FFFFFF" d="M251.225,39.567v3.776h1.321c0.265,0,0.454,0.051,0.566,0.153c0.113,0.103,0.169,0.236,0.169,0.4
          c0,0.161-0.056,0.293-0.169,0.395c-0.112,0.103-0.301,0.153-0.566,0.153h-3.744c-0.265,0-0.454-0.051-0.567-0.153
          c-0.112-0.102-0.169-0.235-0.169-0.4c0-0.161,0.057-0.292,0.169-0.395c0.113-0.102,0.302-0.153,0.567-0.153h1.321v-2.675h-0.886
          c-0.261,0-0.449-0.051-0.564-0.153c-0.115-0.103-0.172-0.236-0.172-0.4c0-0.161,0.056-0.293,0.169-0.395
          c0.112-0.103,0.301-0.153,0.566-0.153H251.225z M251.074,37.478v1.166h-1.311v-1.166H251.074z"/>
        <path class="box-dispatch" fill="#FFFFFF" d="M260.141,42.097c0,0.422-0.117,0.832-0.352,1.227c-0.234,0.396-0.583,0.711-1.047,0.945
          c-0.464,0.235-0.948,0.352-1.453,0.352c-0.501,0-0.981-0.116-1.439-0.346c-0.458-0.231-0.808-0.545-1.047-0.943
          s-0.36-0.813-0.36-1.246c0-0.44,0.122-0.873,0.365-1.297c0.244-0.424,0.594-0.758,1.05-1.001
          c0.457-0.244,0.934-0.365,1.432-0.365c0.501,0,0.984,0.125,1.447,0.374c0.464,0.249,0.814,0.583,1.05,1.004
          C260.022,41.221,260.141,41.653,260.141,42.097z M259.04,42.103c0-0.354-0.127-0.68-0.381-0.978
          c-0.347-0.401-0.804-0.602-1.37-0.602c-0.498,0-0.913,0.159-1.246,0.478s-0.5,0.688-0.5,1.106c0,0.344,0.168,0.665,0.505,0.964
          c0.336,0.299,0.75,0.448,1.241,0.448c0.494,0,0.91-0.149,1.246-0.448C258.871,42.773,259.04,42.45,259.04,42.103z"/>
        <path class="box-dispatch" fill="#FFFFFF" d="M262.767,39.567v0.371c0.201-0.172,0.421-0.301,0.664-0.387c0.241-0.086,0.504-0.129,0.787-0.129
          c0.652,0,1.167,0.202,1.547,0.607c0.301,0.322,0.451,0.745,0.451,1.268v2.046c0.233,0,0.405,0.051,0.516,0.153
          c0.111,0.103,0.167,0.236,0.167,0.4c0,0.161-0.057,0.293-0.169,0.395c-0.113,0.103-0.302,0.153-0.567,0.153h-0.994
          c-0.265,0-0.454-0.051-0.566-0.153c-0.113-0.102-0.169-0.235-0.169-0.4c0-0.161,0.056-0.292,0.167-0.395
          c0.111-0.102,0.283-0.153,0.516-0.153v-2.079c0-0.24-0.064-0.416-0.193-0.526c-0.168-0.143-0.421-0.215-0.757-0.215
          c-0.254,0-0.477,0.049-0.668,0.147c-0.192,0.099-0.435,0.307-0.728,0.626v2.046c0.283,0,0.465,0.027,0.548,0.081
          c0.175,0.107,0.263,0.265,0.263,0.473c0,0.161-0.057,0.293-0.169,0.395c-0.113,0.103-0.302,0.153-0.567,0.153h-1.251
          c-0.265,0-0.454-0.051-0.566-0.153c-0.113-0.102-0.169-0.235-0.169-0.4c0-0.201,0.086-0.356,0.258-0.467
          c0.086-0.054,0.271-0.081,0.553-0.081v-2.675c-0.233,0-0.405-0.052-0.516-0.156s-0.167-0.236-0.167-0.397
          s0.056-0.293,0.169-0.395c0.112-0.103,0.301-0.153,0.566-0.153H262.767z"/>
        <path class="box-dispatch" fill="#FFFFFF" d="M270.953,41.77c0,0.626-0.104,1.262-0.312,1.907c-0.154,0.473-0.392,0.997-0.714,1.574
          c-0.233,0.416-0.405,0.671-0.516,0.768s-0.234,0.145-0.371,0.145c-0.158,0-0.29-0.054-0.397-0.161s-0.161-0.236-0.161-0.387
          c0-0.107,0.043-0.231,0.129-0.371c0.387-0.634,0.669-1.228,0.846-1.783c0.178-0.555,0.266-1.119,0.266-1.692
          c0-0.569-0.088-1.131-0.266-1.687c-0.177-0.555-0.459-1.149-0.846-1.783c-0.086-0.143-0.129-0.267-0.129-0.371
          c0-0.15,0.054-0.279,0.161-0.387s0.24-0.161,0.397-0.161c0.132,0,0.249,0.043,0.349,0.129c0.143,0.122,0.333,0.403,0.569,0.843
          c0.34,0.634,0.573,1.155,0.698,1.563C270.854,40.55,270.953,41.168,270.953,41.77z"/>
      </g>
    </g>
  </g>
  <path class="arrow-redicer" d="M469.075,50.894c6.664-3.434,14.497-6.753,24.399-8.414c-9.902-1.734-18.097-5.248-24.399-8.789
    c0.141,2.055,1.521,4.422,4.293,6.422H359.04c-0.066,0-1.04,0.436-2.04-0.082v4.683c1-0.44,1.771-0.601,1.932-0.601h114.522
    C470.653,46.114,469.502,48.664,469.075,50.894z"/>
  <path class="arrow-store" d="M655.075,50.894c6.664-3.434,14.497-6.753,24.399-8.414c-9.902-1.734-18.097-5.248-24.399-8.789
    c0.141,2.055,1.521,4.422,4.293,6.422H545.04c-0.066,0-1.04,0.436-2.04-0.082v4.683c1-0.44,1.771-0.601,1.932-0.601h114.522
    C656.653,46.114,655.502,48.664,655.075,50.894z"/>
  <g>
    <path class="box-action" fill="#225378" stroke="#000000" stroke-miterlimit="10" d="M161.5,67.614c0,6.627-5.373,12-12,12h-135
      c-6.627,0-12-5.373-12-12v-51c0-6.627,5.373-12,12-12h135c6.627,0,12,5.373,12,12V67.614z"/>
    <g class="box-action-chars">
      <path fill="#F3FFE2" d="M51.162,48.74c-0.629,0-1.176-0.807-1.641-2.42c-0.178-0.615-0.4-1.692-0.667-3.229
        c-0.697,0.096-1.61,0.266-2.738,0.512l-2.728,0.564c-0.342,0.896-0.926,2.205-1.753,3.928c-0.219,0.382-0.516,0.574-0.892,0.574
        c-0.273,0-0.518-0.1-0.733-0.298c-0.215-0.198-0.323-0.444-0.323-0.738c0-0.328,0.516-1.575,1.548-3.743
        c-0.116-0.177-0.174-0.382-0.174-0.615c0-0.553,0.335-0.908,1.005-1.066c0.779-1.462,1.764-3.144,2.953-5.045
        c1.62-2.59,2.628-3.886,3.025-3.886c0.54,0,0.909,0.376,1.107,1.128l0.646,3.445l1.528,7.127l0.584,1.619
        c0.198,0.555,0.297,0.924,0.297,1.107c0,0.295-0.106,0.541-0.318,0.738C51.678,48.641,51.435,48.74,51.162,48.74z M47.542,37.021
        l-2.933,4.727c0.827-0.212,2.082-0.468,3.763-0.77L47.542,37.021z"/>
      <path fill="#F3FFE2" d="M65.025,36.928c-0.438,0-0.766-0.257-0.984-0.769c-0.191-0.438-0.369-0.704-0.533-0.801
        c-0.144-0.074-0.499-0.112-1.066-0.112c-0.991,0-2.092,0.759-3.302,2.276c-1.641,2.037-2.461,3.969-2.461,5.793
        c0,0.883,0.284,1.641,0.851,2.277c0.581,0.656,1.282,0.984,2.102,0.984c0.704,0,1.412-0.182,2.123-0.544
        c0.396-0.205,1.005-0.608,1.825-1.21c0.39-0.287,0.684-0.431,0.882-0.431c0.294,0,0.54,0.111,0.738,0.333
        c0.198,0.223,0.297,0.471,0.297,0.744c0,0.307-0.13,0.577-0.39,0.81c-1.805,1.6-3.63,2.399-5.476,2.399
        c-1.415,0-2.611-0.543-3.589-1.631c-0.943-1.052-1.415-2.297-1.415-3.732c0-2.316,0.971-4.692,2.912-7.126
        c1.62-2.03,3.254-3.046,4.901-3.046c0.335,0,0.636,0.016,0.902,0.047c0.267,0.03,0.502,0.08,0.708,0.148
        c0.239-0.349,0.55-0.523,0.933-0.523c0.472,0,0.769,0.312,0.892,0.934c0.109,0.554,0.164,1.234,0.164,2.041
        c0,0.28-0.075,0.526-0.226,0.738C65.63,36.794,65.367,36.928,65.025,36.928z"/>
      <path fill="#F3FFE2" d="M80.324,35.481c-0.506,0-1.285-0.041-2.338-0.123c-1.025-0.074-1.805-0.108-2.338-0.102H74.92
        c0.021,0.943,0.113,2.475,0.277,4.594c0.15,1.976,0.226,3.51,0.226,4.604c0,0.239,0.024,0.602,0.072,1.087
        s0.072,0.851,0.072,1.097c0,0.466-0.075,0.865-0.226,1.2c-0.191,0.451-0.489,0.677-0.892,0.677c-0.273,0-0.52-0.096-0.738-0.287
        s-0.328-0.438-0.328-0.738c0-0.103,0.017-0.256,0.051-0.461s0.051-0.359,0.051-0.462c0-0.335-0.022-0.837-0.067-1.507
        s-0.066-1.176-0.066-1.518c0-0.978-0.079-2.352-0.236-4.123c-0.164-1.913-0.256-3.287-0.277-4.121l-0.933,0.01
        c-1.497,0-2.673-0.109-3.527-0.328c-0.554-0.144-0.831-0.482-0.831-1.016c0-0.279,0.089-0.525,0.267-0.738
        c0.205-0.238,0.468-0.348,0.79-0.328c0.239,0.015,0.786,0.076,1.641,0.186c0.684,0.082,1.237,0.123,1.661,0.123
        c0.41,0,1.032-0.009,1.866-0.026c0.834-0.017,1.456-0.025,1.866-0.025c0.526,0,1.307,0.038,2.343,0.112
        c1.035,0.076,1.816,0.113,2.343,0.113c0.294,0,0.54,0.101,0.738,0.303c0.198,0.201,0.297,0.453,0.297,0.754
        c0,0.294-0.099,0.541-0.297,0.743C80.864,35.381,80.618,35.481,80.324,35.481z"/>
      <path fill="#F3FFE2" d="M90.444,35.656c-0.438,0-0.988-0.044-1.651-0.134l-1.651-0.215c-0.157,1.989-0.236,3.89-0.236,5.701
        c0,0.479,0.014,1.07,0.041,1.773c0.027,0.705,0.041,1.296,0.041,1.774c0,0.643-0.024,1.228-0.072,1.753l3.23-0.041
        c0.287,0,0.528,0.102,0.723,0.303c0.195,0.202,0.292,0.45,0.292,0.744c0,0.301-0.097,0.552-0.292,0.753
        c-0.194,0.202-0.436,0.303-0.723,0.303c-0.383,0-0.957,0.009-1.723,0.025c-0.766,0.018-1.34,0.026-1.723,0.026
        c-0.451,0-1.126,0.063-2.025,0.189c-0.899,0.126-1.577,0.189-2.035,0.189c-0.287,0-0.528-0.101-0.723-0.303
        c-0.195-0.201-0.292-0.449-0.292-0.743s0.097-0.544,0.292-0.749c0.194-0.205,0.436-0.307,0.723-0.307
        c0.444,0,1.179-0.072,2.205-0.216c0.068-0.554,0.103-1.186,0.103-1.897c0-0.471-0.022-1.047-0.067-1.728
        c-0.044-0.68-0.066-1.252-0.066-1.718c0-1.578,0.096-3.551,0.287-5.916l-1.333,0.041l-1.333,0.031c-0.294,0-0.54-0.1-0.738-0.298
        S81.4,34.549,81.4,34.241c0-0.636,0.321-0.984,0.964-1.046c0.554-0.055,1.589-0.082,3.107-0.082c1.36,0,3.066,0.147,5.117,0.44
        c0.608,0.09,0.913,0.455,0.913,1.098c0,0.321-0.116,0.578-0.349,0.77C90.947,35.578,90.711,35.656,90.444,35.656z"/>
      <path fill="#F3FFE2" d="M100.329,49.058c-1.928,0-3.562-0.577-4.901-1.732c-1.422-1.23-2.133-2.816-2.133-4.758
        c0-2.365,0.701-4.515,2.102-6.449c1.565-2.146,3.517-3.221,5.855-3.221c2.249,0,3.92,0.507,5.014,1.518
        c1.142,1.054,1.712,2.715,1.712,4.984c0,2.365-0.643,4.498-1.928,6.398C104.574,47.972,102.667,49.058,100.329,49.058z
         M101.252,35c-1.675,0-3.093,0.834-4.255,2.502c-1.073,1.531-1.61,3.22-1.61,5.065c0,1.319,0.489,2.393,1.466,3.22
        c0.937,0.779,2.095,1.169,3.476,1.169c1.661,0,3.032-0.837,4.112-2.512c0.964-1.498,1.446-3.18,1.446-5.045
        c0-1.634-0.366-2.782-1.097-3.445C104.092,35.317,102.913,35,101.252,35z"/>
      <path fill="#F3FFE2" d="M124.672,46.156c0,0.328-0.055,0.875-0.164,1.641c-0.109,0.69-0.475,1.036-1.097,1.036
        c-0.376,0-0.824-0.246-1.343-0.738c-2.782-2.632-5.975-6.43-9.577-11.393l-0.051,2.328l-0.031,2.338
        c0,0.567,0.012,1.418,0.036,2.553s0.036,1.989,0.036,2.563c0,1.839-0.355,2.759-1.066,2.759c-0.376,0-0.673-0.12-0.892-0.359
        c-0.198-0.212-0.297-0.465-0.297-0.759c0-0.287,0.022-0.721,0.066-1.302s0.067-1.016,0.067-1.303
        c0-0.424,0.014-1.058,0.041-1.902c0.027-0.844,0.041-1.478,0.041-1.902c0-0.451-0.01-1.133-0.031-2.045
        c-0.021-0.913-0.031-1.595-0.031-2.046c0-0.431-0.041-1.071-0.123-1.923c-0.082-0.851-0.123-1.492-0.123-1.922
        c0-0.314,0.135-0.602,0.405-0.861s0.576-0.391,0.918-0.391c0.362,0,0.81,0.397,1.343,1.189c1.702,2.551,3.233,4.67,4.594,6.357
        c1.62,2.004,3.397,3.918,5.332,5.742c0.021-0.293,0.021-0.728,0-1.302l-0.031-1.292c0-3.001-0.116-5.39-0.349-7.168
        c-0.027-0.177-0.12-0.536-0.277-1.076c-0.137-0.465-0.205-0.827-0.205-1.087c0-0.793,0.362-1.189,1.087-1.189
        c1.189,0,1.784,2.219,1.784,6.655c0,0.758-0.01,1.892-0.031,3.398C124.682,44.265,124.672,45.397,124.672,46.156z"/>
    </g>
  </g>
  <g>
    <path class="box-reducer" fill="#1695A3" stroke="#000000" stroke-miterlimit="10" d="M462.5,67.614c0,6.627-5.373,12-12,12h-135
      c-6.627,0-12-5.373-12-12v-51c0-6.627,5.373-12,12-12h135c6.627,0,12,5.373,12,12V67.614z"/>
    <g  class="box-reducer-chars">
      <path fill="#ACF0F2" d="M346.568,48.546c-0.26,0-0.502-0.11-0.728-0.328c-2.263-2.236-4.778-3.739-7.547-4.512l0.082,2.01
        l0.051,2.02c0,0.301-0.098,0.552-0.292,0.754c-0.195,0.201-0.439,0.303-0.733,0.303s-0.538-0.102-0.733-0.303
        c-0.194-0.202-0.292-0.453-0.292-0.754c0-0.54-0.025-1.345-0.077-2.415c-0.051-1.069-0.077-1.874-0.077-2.415
        c0-0.628,0.068-1.564,0.205-2.809s0.205-2.178,0.205-2.8c0-0.349-0.033-0.864-0.097-1.548c-0.065-0.684-0.098-1.2-0.098-1.549
        c0-0.39,0.109-0.731,0.328-1.025c0.26-0.362,0.619-0.526,1.077-0.492l2.471,0.195c0.937,0.116,1.726,0.345,2.369,0.687
        c2.769,1.47,4.153,3.265,4.153,5.384c0,1.039-0.472,1.958-1.415,2.758c-0.759,0.643-1.706,1.132-2.84,1.467
        c2.126,1.142,3.715,2.345,4.768,3.609c0.178,0.219,0.267,0.451,0.267,0.697c0,0.287-0.104,0.536-0.313,0.748
        C347.092,48.439,346.848,48.546,346.568,48.546z M340.036,34.989l-1.518-0.123l0.103,1.241c0.048,0.506,0.072,0.92,0.072,1.241
        c0,0.547-0.044,1.227-0.133,2.04l-0.215,2.04c0.096,0,0.244,0.004,0.446,0.011c0.201,0.007,0.354,0.011,0.456,0.011
        c1.743,0,3.049-0.232,3.917-0.697c0.383-0.212,0.738-0.489,1.066-0.831c0.362-0.383,0.543-0.708,0.543-0.974
        c0-0.95-0.54-1.836-1.62-2.656C342.162,35.54,341.123,35.106,340.036,34.989z"/>
      <path fill="#ACF0F2" d="M359.652,34.631c-0.096,0-0.202-0.017-0.318-0.052c-1.155-0.328-2.27-0.492-3.343-0.492
        c-0.561,0-1.172,0.052-1.835,0.154s-1.377,0.26-2.143,0.472c0.062,0.444,0.092,0.8,0.092,1.066c0,0.95-0.058,2.256-0.174,3.917
        l4.491-0.431c1.319-0.137,2.129-0.205,2.43-0.205s0.554,0.096,0.759,0.287s0.308,0.448,0.308,0.769
        c0,0.623-0.314,0.972-0.943,1.047l-2.44,0.215l-4.737,0.431c-0.027,0.485-0.05,0.945-0.067,1.379
        c-0.017,0.435-0.025,0.84-0.025,1.216c0,1.511,0.109,2.398,0.328,2.666c0.164,0.191,0.701,0.287,1.61,0.287
        c0.424,0,1.061-0.013,1.913-0.036c0.851-0.024,1.492-0.036,1.922-0.036c0.137,0,0.338-0.022,0.605-0.066
        c0.267-0.045,0.465-0.066,0.595-0.066c0.725,0,1.087,0.355,1.087,1.066c0,0.574-0.291,0.919-0.872,1.035
        c-0.643,0.13-2.034,0.195-4.173,0.195c-2.119,0-3.479-0.281-4.081-0.842c-0.656-0.607-0.984-2.01-0.984-4.203
        c0-0.438,0.01-0.916,0.031-1.436s0.048-1.08,0.082-1.682c-0.075-0.157-0.113-0.325-0.113-0.503c0-0.232,0.065-0.44,0.195-0.626
        c0.137-1.975,0.205-3.435,0.205-4.378c0-0.253-0.034-0.624-0.103-1.112c-0.068-0.489-0.103-0.859-0.103-1.113
        c0-0.813,0.342-1.22,1.025-1.22c0.287,0,0.533,0.1,0.738,0.298c0.82-0.219,1.594-0.383,2.323-0.492
        c0.728-0.109,1.413-0.164,2.056-0.164c1.661,0,2.987,0.198,3.979,0.594c0.458,0.186,0.687,0.514,0.687,0.984
        c0,0.274-0.089,0.517-0.267,0.729C360.192,34.515,359.946,34.631,359.652,34.631z"/>
      <path fill="#ACF0F2" d="M372.367,48.36c-1.06,0.725-2.581,1.088-4.563,1.088c-0.499,0-1.07-0.079-1.712-0.236
        c-0.772-0.185-1.354-0.424-1.743-0.718h-0.103c-0.294,0-0.54-0.103-0.738-0.308s-0.297-0.454-0.297-0.748
        c0-0.719,0.032-1.793,0.097-3.226c0.065-1.432,0.098-2.507,0.098-3.225c0-0.8-0.016-1.994-0.046-3.584
        c-0.031-1.589-0.046-2.784-0.046-3.583c0-0.28,0.144-0.574,0.431-0.883c0.287-0.307,0.574-0.461,0.861-0.461
        c0.164,0,0.711,0.229,1.641,0.688c1.053,0.512,1.661,0.796,1.825,0.851c1.941,0.663,3.596,1.682,4.963,3.056
        c1.606,1.62,2.41,3.401,2.41,5.342c0,1.17-0.275,2.291-0.825,3.363C374.067,46.851,373.317,47.712,372.367,48.36z
         M370.213,37.513c-0.697-0.458-2.307-1.244-4.83-2.359l0.051,2.953l0.031,2.943l-0.164,5.599c0.048,0.021,0.12,0.065,0.215,0.134
        c0.602,0.403,1.36,0.604,2.276,0.604c1.559,0,2.693-0.239,3.404-0.718c0.663-0.451,1.191-1.058,1.584-1.82
        c0.393-0.762,0.59-1.557,0.59-2.384C373.372,40.537,372.319,38.886,370.213,37.513z"/>
      <path fill="#ACF0F2" d="M384.589,48.843c-2.126,0-3.712-0.611-4.758-1.836c-0.848-0.984-1.381-2.439-1.6-4.367
        c-0.103-0.868-0.154-2.602-0.154-5.199c0-0.957,0.021-1.729,0.062-2.317c0.041-0.622,0.103-1.056,0.185-1.302
        c0.171-0.499,0.479-0.749,0.923-0.749c0.629,0,0.943,0.578,0.943,1.733v6.019c0,4.143,1.449,6.214,4.348,6.214
        c2.728,0,4.091-3.486,4.091-10.459c0-0.26,0-0.595,0-1.005c-0.007-0.41-0.01-0.684-0.01-0.82c0-0.424,0.075-0.796,0.226-1.118
        c0.191-0.41,0.475-0.615,0.851-0.615c0.684,0,1.025,0.469,1.025,1.405c0,0.28,0.003,0.704,0.01,1.271c0,0.567,0,0.991,0,1.271
        C390.731,44.885,388.684,48.843,384.589,48.843z"/>
      <path fill="#ACF0F2" d="M403.282,36.928c-0.438,0-0.766-0.257-0.984-0.769c-0.191-0.438-0.369-0.704-0.533-0.801
        c-0.144-0.074-0.499-0.112-1.066-0.112c-0.991,0-2.092,0.759-3.302,2.276c-1.641,2.037-2.461,3.969-2.461,5.793
        c0,0.883,0.284,1.641,0.851,2.277c0.581,0.656,1.282,0.984,2.102,0.984c0.704,0,1.412-0.182,2.123-0.544
        c0.396-0.205,1.005-0.608,1.825-1.21c0.39-0.287,0.684-0.431,0.882-0.431c0.294,0,0.54,0.111,0.738,0.333
        c0.198,0.223,0.297,0.471,0.297,0.744c0,0.307-0.13,0.577-0.39,0.81c-1.805,1.6-3.63,2.399-5.476,2.399
        c-1.415,0-2.611-0.543-3.589-1.631c-0.943-1.052-1.415-2.297-1.415-3.732c0-2.316,0.971-4.692,2.912-7.126
        c1.62-2.03,3.254-3.046,4.901-3.046c0.335,0,0.636,0.016,0.902,0.047c0.267,0.03,0.502,0.08,0.708,0.148
        c0.239-0.349,0.55-0.523,0.933-0.523c0.472,0,0.769,0.312,0.892,0.934c0.109,0.554,0.164,1.234,0.164,2.041
        c0,0.28-0.075,0.526-0.226,0.738C403.887,36.794,403.624,36.928,403.282,36.928z"/>
      <path fill="#ACF0F2" d="M416.048,34.631c-0.096,0-0.202-0.017-0.318-0.052c-1.155-0.328-2.27-0.492-3.343-0.492
        c-0.561,0-1.172,0.052-1.835,0.154s-1.377,0.26-2.143,0.472c0.062,0.444,0.092,0.8,0.092,1.066c0,0.95-0.058,2.256-0.174,3.917
        l4.491-0.431c1.319-0.137,2.129-0.205,2.43-0.205s0.554,0.096,0.759,0.287s0.308,0.448,0.308,0.769
        c0,0.623-0.314,0.972-0.943,1.047l-2.44,0.215l-4.737,0.431c-0.027,0.485-0.05,0.945-0.067,1.379
        c-0.017,0.435-0.025,0.84-0.025,1.216c0,1.511,0.109,2.398,0.328,2.666c0.164,0.191,0.701,0.287,1.61,0.287
        c0.424,0,1.061-0.013,1.913-0.036c0.851-0.024,1.492-0.036,1.922-0.036c0.137,0,0.338-0.022,0.605-0.066
        c0.267-0.045,0.465-0.066,0.595-0.066c0.725,0,1.087,0.355,1.087,1.066c0,0.574-0.291,0.919-0.872,1.035
        c-0.643,0.13-2.034,0.195-4.173,0.195c-2.119,0-3.479-0.281-4.081-0.842c-0.656-0.607-0.984-2.01-0.984-4.203
        c0-0.438,0.01-0.916,0.031-1.436s0.048-1.08,0.082-1.682c-0.075-0.157-0.113-0.325-0.113-0.503c0-0.232,0.065-0.44,0.195-0.626
        c0.137-1.975,0.205-3.435,0.205-4.378c0-0.253-0.034-0.624-0.103-1.112c-0.068-0.489-0.103-0.859-0.103-1.113
        c0-0.813,0.342-1.22,1.025-1.22c0.287,0,0.533,0.1,0.738,0.298c0.82-0.219,1.594-0.383,2.323-0.492
        c0.728-0.109,1.413-0.164,2.056-0.164c1.661,0,2.987,0.198,3.979,0.594c0.458,0.186,0.687,0.514,0.687,0.984
        c0,0.274-0.089,0.517-0.267,0.729C416.588,34.515,416.342,34.631,416.048,34.631z"/>
      <path fill="#ACF0F2" d="M429.276,48.546c-0.26,0-0.502-0.11-0.728-0.328c-2.263-2.236-4.778-3.739-7.547-4.512l0.082,2.01
        l0.051,2.02c0,0.301-0.098,0.552-0.292,0.754c-0.195,0.201-0.439,0.303-0.733,0.303s-0.538-0.102-0.733-0.303
        c-0.194-0.202-0.292-0.453-0.292-0.754c0-0.54-0.025-1.345-0.077-2.415c-0.051-1.069-0.077-1.874-0.077-2.415
        c0-0.628,0.068-1.564,0.205-2.809s0.205-2.178,0.205-2.8c0-0.349-0.033-0.864-0.097-1.548c-0.065-0.684-0.098-1.2-0.098-1.549
        c0-0.39,0.109-0.731,0.328-1.025c0.26-0.362,0.619-0.526,1.077-0.492l2.471,0.195c0.937,0.116,1.726,0.345,2.369,0.687
        c2.769,1.47,4.153,3.265,4.153,5.384c0,1.039-0.472,1.958-1.415,2.758c-0.759,0.643-1.706,1.132-2.84,1.467
        c2.126,1.142,3.715,2.345,4.768,3.609c0.178,0.219,0.267,0.451,0.267,0.697c0,0.287-0.104,0.536-0.313,0.748
        C429.8,48.439,429.556,48.546,429.276,48.546z M422.744,34.989l-1.518-0.123l0.103,1.241c0.048,0.506,0.072,0.92,0.072,1.241
        c0,0.547-0.044,1.227-0.133,2.04l-0.215,2.04c0.096,0,0.244,0.004,0.446,0.011c0.201,0.007,0.354,0.011,0.456,0.011
        c1.743,0,3.049-0.232,3.917-0.697c0.383-0.212,0.738-0.489,1.066-0.831c0.362-0.383,0.543-0.708,0.543-0.974
        c0-0.95-0.54-1.836-1.62-2.656C424.87,35.54,423.831,35.106,422.744,34.989z"/>
    </g>
  </g>
  <g>
    <path class="box-store" fill="#ACF0F2" stroke="#000000" stroke-miterlimit="10" d="M650.5,67.614c0,6.627-5.373,12-12,12h-135
      c-6.627,0-12-5.373-12-12v-51c0-6.627,5.373-12,12-12h135c6.627,0,12,5.373,12,12V67.614z"/>
    <g class="box-store-chars">
      <path fill="#EB7F00" d="M536.393,45.88c-0.006-0.287,0.091-0.521,0.293-0.703c0.201-0.181,0.449-0.271,0.743-0.271
        c0.335,0,0.629,0.191,0.882,0.574c0.349,0.52,0.66,0.871,0.934,1.057c0.58,0.383,1.425,0.574,2.532,0.574
        c1.06,0,2.044-0.229,2.953-0.688c1.162-0.588,1.743-1.404,1.743-2.451c0-0.861-0.488-1.541-1.467-2.04
        c-0.826-0.431-1.849-0.663-3.065-0.697c-1.08-0.041-1.999-0.276-2.759-0.708c-0.971-0.553-1.455-1.346-1.455-2.379
        c0-1.216,0.689-2.327,2.07-3.332c1.32-0.95,2.684-1.426,4.092-1.426c0.663,0,1.412,0.113,2.246,0.339
        c1.107,0.294,1.66,0.67,1.66,1.128c0,0.602-0.307,0.902-0.922,0.902c-0.273,0-0.752-0.073-1.436-0.221
        c-0.684-0.146-1.214-0.217-1.59-0.21c-1.066,0.014-1.973,0.276-2.717,0.79c-0.766,0.526-1.148,1.165-1.148,1.917
        c0,0.567,0.506,0.968,1.518,1.2c0.375,0.089,1.104,0.171,2.184,0.246c1.565,0.116,2.789,0.608,3.671,1.477
        c0.807,0.793,1.21,1.76,1.21,2.901c0,1.627-0.752,2.926-2.256,3.896c-1.306,0.841-2.82,1.261-4.543,1.261
        c-1.25,0-2.396-0.239-3.435-0.717C537.06,47.712,536.414,46.905,536.393,45.88z"/>
      <path fill="#EB7F00" d="M563.545,35.481c-0.506,0-1.285-0.041-2.338-0.123c-1.025-0.074-1.805-0.108-2.338-0.102h-0.728
        c0.021,0.943,0.112,2.475,0.276,4.594c0.15,1.976,0.227,3.51,0.227,4.604c0,0.239,0.023,0.602,0.071,1.087
        s0.071,0.851,0.071,1.097c0,0.466-0.074,0.865-0.225,1.2c-0.191,0.451-0.489,0.677-0.893,0.677c-0.273,0-0.52-0.096-0.738-0.287
        s-0.328-0.438-0.328-0.738c0-0.103,0.018-0.256,0.051-0.461c0.035-0.205,0.052-0.359,0.052-0.462
        c0-0.335-0.022-0.837-0.067-1.507c-0.044-0.67-0.066-1.176-0.066-1.518c0-0.978-0.078-2.352-0.235-4.123
        c-0.164-1.913-0.257-3.287-0.276-4.121l-0.934,0.01c-1.497,0-2.673-0.109-3.527-0.328c-0.554-0.144-0.83-0.482-0.83-1.016
        c0-0.279,0.088-0.525,0.266-0.738c0.205-0.238,0.469-0.348,0.79-0.328c0.239,0.015,0.786,0.076,1.641,0.186
        c0.684,0.082,1.237,0.123,1.661,0.123c0.41,0,1.032-0.009,1.866-0.026c0.834-0.017,1.456-0.025,1.866-0.025
        c0.526,0,1.307,0.038,2.344,0.112c1.035,0.076,1.816,0.113,2.342,0.113c0.295,0,0.541,0.101,0.738,0.303
        c0.199,0.201,0.298,0.453,0.298,0.754c0,0.294-0.099,0.541-0.298,0.743C564.086,35.381,563.84,35.481,563.545,35.481z"/>
      <path fill="#EB7F00" d="M572.076,49.058c-1.928,0-3.561-0.577-4.9-1.732c-1.422-1.23-2.133-2.816-2.133-4.758
        c0-2.365,0.7-4.515,2.102-6.449c1.565-2.146,3.518-3.221,5.855-3.221c2.248,0,3.92,0.507,5.014,1.518
        c1.142,1.054,1.713,2.715,1.713,4.984c0,2.365-0.643,4.498-1.928,6.398C576.322,47.972,574.414,49.058,572.076,49.058z M573,35
        c-1.676,0-3.094,0.834-4.256,2.502c-1.073,1.531-1.609,3.22-1.609,5.065c0,1.319,0.488,2.393,1.466,3.22
        c0.937,0.779,2.095,1.169,3.476,1.169c1.662,0,3.032-0.837,4.112-2.512c0.964-1.498,1.446-3.18,1.446-5.045
        c0-1.634-0.366-2.782-1.098-3.445C575.84,35.317,574.66,35,573,35z"/>
      <path fill="#EB7F00" d="M592.164,48.546c-0.26,0-0.502-0.11-0.729-0.328c-2.262-2.236-4.777-3.739-7.547-4.512l0.082,2.01
        l0.052,2.02c0,0.301-0.098,0.552-0.292,0.754c-0.195,0.201-0.439,0.303-0.733,0.303s-0.538-0.102-0.733-0.303
        c-0.194-0.202-0.292-0.453-0.292-0.754c0-0.54-0.025-1.345-0.077-2.415c-0.051-1.069-0.076-1.874-0.076-2.415
        c0-0.628,0.068-1.564,0.205-2.809s0.205-2.178,0.205-2.8c0-0.349-0.033-0.864-0.098-1.548c-0.065-0.684-0.098-1.2-0.098-1.549
        c0-0.39,0.109-0.731,0.328-1.025c0.26-0.362,0.619-0.526,1.076-0.492l2.472,0.195c0.937,0.116,1.726,0.345,2.368,0.687
        c2.77,1.47,4.153,3.265,4.153,5.384c0,1.039-0.472,1.958-1.415,2.758c-0.759,0.643-1.705,1.132-2.84,1.467
        c2.125,1.142,3.715,2.345,4.768,3.609c0.178,0.219,0.267,0.451,0.267,0.697c0,0.287-0.104,0.536-0.313,0.748
        C592.688,48.439,592.444,48.546,592.164,48.546z M585.633,34.989l-1.518-0.123l0.102,1.241c0.049,0.506,0.072,0.92,0.072,1.241
        c0,0.547-0.045,1.227-0.133,2.04l-0.216,2.04c0.096,0,0.244,0.004,0.446,0.011c0.201,0.007,0.354,0.011,0.456,0.011
        c1.743,0,3.049-0.232,3.917-0.697c0.383-0.212,0.738-0.489,1.066-0.831c0.362-0.383,0.543-0.708,0.543-0.974
        c0-0.95-0.539-1.836-1.619-2.656C587.758,35.54,586.719,35.106,585.633,34.989z"/>
      <path fill="#EB7F00" d="M605.248,34.631c-0.096,0-0.201-0.017-0.318-0.052c-1.154-0.328-2.27-0.492-3.342-0.492
        c-0.561,0-1.173,0.052-1.836,0.154s-1.377,0.26-2.143,0.472c0.061,0.444,0.092,0.8,0.092,1.066c0,0.95-0.059,2.256-0.174,3.917
        l4.49-0.431c1.32-0.137,2.13-0.205,2.431-0.205s0.554,0.096,0.759,0.287s0.308,0.448,0.308,0.769
        c0,0.623-0.314,0.972-0.943,1.047l-2.44,0.215l-4.737,0.431c-0.027,0.485-0.05,0.945-0.067,1.379
        c-0.017,0.435-0.025,0.84-0.025,1.216c0,1.511,0.109,2.398,0.328,2.666c0.164,0.191,0.701,0.287,1.61,0.287
        c0.424,0,1.062-0.013,1.913-0.036c0.85-0.024,1.491-0.036,1.922-0.036c0.137,0,0.338-0.022,0.605-0.066
        c0.266-0.045,0.465-0.066,0.594-0.066c0.725,0,1.088,0.355,1.088,1.066c0,0.574-0.291,0.919-0.872,1.035
        c-0.643,0.13-2.034,0.195-4.173,0.195c-2.119,0-3.48-0.281-4.082-0.842c-0.656-0.607-0.984-2.01-0.984-4.203
        c0-0.438,0.011-0.916,0.031-1.436s0.048-1.08,0.082-1.682c-0.075-0.157-0.113-0.325-0.113-0.503c0-0.232,0.065-0.44,0.195-0.626
        c0.137-1.975,0.205-3.435,0.205-4.378c0-0.253-0.034-0.624-0.103-1.112c-0.068-0.489-0.103-0.859-0.103-1.113
        c0-0.813,0.342-1.22,1.025-1.22c0.287,0,0.533,0.1,0.738,0.298c0.82-0.219,1.594-0.383,2.322-0.492s1.414-0.164,2.057-0.164
        c1.66,0,2.986,0.198,3.979,0.594c0.457,0.186,0.687,0.514,0.687,0.984c0,0.274-0.089,0.517-0.267,0.729
        C605.788,34.515,605.542,34.631,605.248,34.631z"/>
    </g>
  </g>
  <g>
    <path class="box-view" fill="#EB7F00" stroke="#000000" stroke-miterlimit="10" d="M838.5,67.614c0,6.627-5.373,12-12,12h-135
      c-6.627,0-12-5.373-12-12v-51c0-6.627,5.373-12,12-12h135c6.627,0,12,5.373,12,12V67.614z"/>
    <g class="box-view-chars">
      <path fill="#ACF0F2" d="M742.332,34.374c-0.424,0.637-0.769,1.303-1.035,2l-0.779,2.246l-2.758,7.454
        c-0.322,0.875-0.697,1.729-1.129,2.563c-0.219,0.41-0.525,0.615-0.922,0.615c-0.527,0-0.896-0.267-1.107-0.8
        c-0.828-2.078-1.747-5.068-2.759-8.972l-0.81-2.82c-0.404-1.422-0.605-2.352-0.605-2.789c0-0.308,0.109-0.561,0.328-0.759
        c0.198-0.185,0.438-0.276,0.718-0.276c0.52,0,0.854,0.28,1.005,0.84l0.379,1.785l0.984,3.486
        c0.656,2.543,1.296,4.733,1.918,6.572l0.062-0.164l2.748-7.444l0.872-2.513c0.389-1.011,0.803-1.776,1.24-2.297
        c0.226-0.272,0.492-0.41,0.8-0.41c0.273,0,0.519,0.104,0.733,0.313c0.215,0.208,0.322,0.46,0.322,0.753
        C742.537,33.964,742.469,34.169,742.332,34.374z"/>
      <path fill="#ACF0F2" d="M752.402,35.656c-0.438,0-0.988-0.044-1.651-0.134l-1.651-0.215c-0.156,1.989-0.235,3.89-0.235,5.701
        c0,0.479,0.014,1.07,0.041,1.773c0.027,0.705,0.041,1.296,0.041,1.774c0,0.643-0.024,1.228-0.071,1.753l3.229-0.041
        c0.287,0,0.528,0.102,0.723,0.303c0.195,0.202,0.292,0.45,0.292,0.744c0,0.301-0.097,0.552-0.292,0.753
        c-0.194,0.202-0.436,0.303-0.723,0.303c-0.383,0-0.957,0.009-1.723,0.025c-0.766,0.018-1.34,0.026-1.723,0.026
        c-0.451,0-1.126,0.063-2.025,0.189c-0.899,0.126-1.577,0.189-2.035,0.189c-0.287,0-0.528-0.101-0.723-0.303
        c-0.195-0.201-0.292-0.449-0.292-0.743s0.097-0.544,0.292-0.749c0.194-0.205,0.436-0.307,0.723-0.307
        c0.444,0,1.179-0.072,2.204-0.216c0.068-0.554,0.104-1.186,0.104-1.897c0-0.471-0.023-1.047-0.067-1.728
        c-0.044-0.68-0.066-1.252-0.066-1.718c0-1.578,0.096-3.551,0.287-5.916l-1.333,0.041l-1.333,0.031c-0.294,0-0.54-0.1-0.738-0.298
        s-0.298-0.451-0.298-0.759c0-0.636,0.322-0.984,0.965-1.046c0.553-0.055,1.589-0.082,3.106-0.082c1.36,0,3.065,0.147,5.116,0.44
        c0.609,0.09,0.913,0.455,0.913,1.098c0,0.321-0.116,0.578-0.349,0.77C752.904,35.578,752.668,35.656,752.402,35.656z"/>
      <path fill="#ACF0F2" d="M765.496,34.631c-0.096,0-0.201-0.017-0.318-0.052c-1.154-0.328-2.27-0.492-3.342-0.492
        c-0.561,0-1.173,0.052-1.836,0.154s-1.377,0.26-2.143,0.472c0.061,0.444,0.092,0.8,0.092,1.066c0,0.95-0.059,2.256-0.174,3.917
        l4.49-0.431c1.32-0.137,2.13-0.205,2.431-0.205s0.554,0.096,0.759,0.287s0.308,0.448,0.308,0.769
        c0,0.623-0.314,0.972-0.943,1.047l-2.44,0.215l-4.737,0.431c-0.027,0.485-0.05,0.945-0.067,1.379
        c-0.017,0.435-0.025,0.84-0.025,1.216c0,1.511,0.109,2.398,0.328,2.666c0.164,0.191,0.701,0.287,1.61,0.287
        c0.424,0,1.062-0.013,1.913-0.036c0.85-0.024,1.491-0.036,1.922-0.036c0.137,0,0.338-0.022,0.605-0.066
        c0.266-0.045,0.465-0.066,0.594-0.066c0.725,0,1.088,0.355,1.088,1.066c0,0.574-0.291,0.919-0.872,1.035
        c-0.643,0.13-2.034,0.195-4.173,0.195c-2.119,0-3.48-0.281-4.082-0.842c-0.656-0.607-0.984-2.01-0.984-4.203
        c0-0.438,0.011-0.916,0.031-1.436s0.048-1.08,0.082-1.682c-0.075-0.157-0.113-0.325-0.113-0.503c0-0.232,0.065-0.44,0.195-0.626
        c0.137-1.975,0.205-3.435,0.205-4.378c0-0.253-0.034-0.624-0.103-1.112c-0.068-0.489-0.103-0.859-0.103-1.113
        c0-0.813,0.342-1.22,1.025-1.22c0.287,0,0.533,0.1,0.738,0.298c0.82-0.219,1.594-0.383,2.322-0.492s1.414-0.164,2.057-0.164
        c1.66,0,2.986,0.198,3.979,0.594c0.457,0.186,0.687,0.514,0.687,0.984c0,0.274-0.089,0.517-0.267,0.729
        C766.036,34.515,765.79,34.631,765.496,34.631z"/>
      <path fill="#ACF0F2" d="M781.77,49.417c-0.314,0-0.592-0.089-0.831-0.267c-0.273-0.205-0.41-0.458-0.41-0.759
        c-0.314-0.827-0.513-1.5-0.595-2.02s-0.352-1.993-0.811-4.42c-0.348-1.839-0.58-3.315-0.697-4.43
        c-0.607,2.256-1.261,4.167-1.958,5.732c-0.807,1.812-1.329,3.229-1.569,4.255c0.082,0.157,0.123,0.312,0.123,0.462
        c0,0.307-0.137,0.56-0.41,0.758c-0.246,0.186-0.525,0.277-0.84,0.277c-0.924,0-1.385-0.414-1.385-1.24l-0.318-1.303l-1.117-5.024
        c-0.444-1.695-1.203-4.125-2.276-7.29c-0.048-0.15-0.071-0.287-0.071-0.41c0-0.637,0.358-0.954,1.076-0.954
        c0.444,0,0.786,0.243,1.025,0.728c0.123,0.246,0.373,0.954,0.748,2.123c0.404,1.237,0.807,2.728,1.211,4.471l0.994,4.532
        c0.731-1.695,1.459-3.76,2.184-6.193c0.445-1.483,0.783-2.513,1.016-3.087c0.615-1.51,1.213-2.266,1.795-2.266
        c0.479,0,0.816,0.243,1.015,0.729c0.246,0.588,0.495,1.988,0.749,4.203c0.137,1.122,0.369,2.469,0.697,4.041l0.881,4.029
        c0.916-2.201,2.062-5.178,3.436-8.932c0.075-0.205,0.246-0.851,0.513-1.938c0.198-0.8,0.44-1.422,0.728-1.866
        c0.246-0.376,0.568-0.563,0.965-0.563c0.689,0,1.035,0.342,1.035,1.025c0,0.116-0.109,0.458-0.328,1.025l-0.41,1.107
        l-0.564,1.824l-3.045,7.404c-0.28,0.813-0.762,1.996-1.445,3.547C782.631,49.188,782.262,49.417,781.77,49.417z"/>
    </g>
  </g>
</g>
</svg>
