<?xml version="1.0" encoding="utf-8"?>
<!-- Generator: Adobe Illustrator 16.0.0, SVG Export Plug-In . SVG Version: 6.00 Build 0)  -->
<!DOCTYPE svg PUBLIC "-//W3C//DTD SVG 1.1//EN" "http://www.w3.org/Graphics/SVG/1.1/DTD/svg11.dtd">
<svg version="1.1" id="Layer_1" xmlns="http://www.w3.org/2000/svg" xmlns:xlink="http://www.w3.org/1999/xlink" x="0px" y="0px"
	 width="471.498px" height="447.601px" viewBox="66.902 79.8 471.498 447.601" enable-background="new 66.902 79.8 471.498 447.601"
	 xml:space="preserve">
<g>
	<path fill="#764ABC" d="M393.6,392.4c17.4-1.801,30.6-16.801,30-34.801S408,325.2,390,325.2h-1.2c-18.601,0.6-33,16.2-32.4,34.8
		c0.601,9,4.2,16.8,9.601,22.2c-20.4,40.2-51.601,69.6-98.4,94.2c-31.8,16.8-64.8,22.8-97.8,18.6c-27-3.6-48-15.6-61.2-35.4
		c-19.2-29.399-21-61.199-4.8-93c11.4-22.8,29.4-39.6,40.8-48c-2.399-7.8-6-21-7.8-30.6c-87,63-78,148.2-51.6,188.4
		c19.8,30,60,48.6,104.399,48.6c12,0,24-1.2,36-4.2C302.4,505.8,360.6,460.2,393.6,392.4z"/>
	<path fill="#764ABC" d="M499.199,318c-45.6-53.4-112.8-82.8-189.6-82.8H300c-5.4-10.8-16.8-18-29.4-18h-1.2
		c-18.6,0.6-33,16.2-32.399,34.8c0.6,18,15.6,32.4,33.6,32.4h1.2c13.2-0.6,24.6-9,29.399-20.4H312c45.6,0,88.8,13.2,127.8,39
		c30,19.8,51.6,45.6,63.6,76.8c10.2,25.2,9.601,49.8-1.2,70.8c-16.8,31.801-45,49.2-82.199,49.2c-24,0-46.801-7.2-58.801-12.6
		c-6.6,6-18.6,15.6-27,21.6c25.801,12,52.2,18.601,77.4,18.601c57.6,0,100.2-31.801,116.4-63.601C545.4,429,544.199,369,499.199,318
		L499.199,318z"/>
	<path fill="#764ABC" d="M194.4,402.6C195,420.6,210,435,228,435h1.2c18.6-0.6,33-16.2,32.399-34.8c-0.6-18-15.6-32.4-33.6-32.4
		h-1.2c-1.2,0-3,0-4.2,0.601c-24.6-40.801-34.8-85.2-31.2-133.2c2.4-36,14.4-67.2,35.4-93c17.4-22.2,51-33,73.8-33.6
		c63.6-1.2,90.6,78,92.4,109.8c7.8,1.8,21,6,30,9c-7.2-97.2-67.2-147.6-124.801-147.6c-53.999,0-103.8,39-123.6,96.6
		c-27.6,76.8-9.6,150.6,24,208.8C195.6,389.4,193.8,396,194.4,402.6L194.4,402.6z"/>
</g>
</svg>
