<?xml version="1.0" encoding="utf-8"?>
<!-- Generator: Adobe Illustrator 16.0.0, SVG Export Plug-In . SVG Version: 6.00 Build 0)  -->
<!DOCTYPE svg PUBLIC "-//W3C//DTD SVG 1.1//EN" "http://www.w3.org/Graphics/SVG/1.1/DTD/svg11.dtd">
<svg version="1.1" id="Layer_1" xmlns="http://www.w3.org/2000/svg" xmlns:xlink="http://www.w3.org/1999/xlink" x="0px" y="0px"
	 width="512.249px" height="486.287px" viewBox="0 -38.686 512.249 486.287" enable-background="new 0 -38.686 512.249 486.287"
	 xml:space="preserve">
<g>
	<path fill="#764ABC" d="M347.073,293.257c17.4-1.801,30.6-16.801,30-34.801s-15.6-32.399-33.6-32.399h-1.201
		c-18.6,0.601-33,16.2-32.4,34.801c0.602,9,4.201,16.8,9.602,22.199c-20.4,40.2-51.601,69.601-98.4,94.2
		c-31.8,16.8-64.8,22.8-97.8,18.601c-27-3.601-48-15.601-61.2-35.4c-19.2-29.399-21-61.199-4.8-93c11.4-22.8,29.4-39.6,40.8-48
		c-2.399-7.8-6-21-7.8-30.601c-87,63.001-78,148.2-51.6,188.4c19.8,30,60,48.601,104.399,48.601c12,0,24-1.2,36-4.2
		C255.873,406.657,314.073,361.056,347.073,293.257z"/>
	<path fill="#764ABC" d="M452.673,218.857c-45.602-53.4-112.801-82.801-189.601-82.801h-9.599c-5.399-10.8-16.8-18-29.4-18h-1.201
		c-18.6,0.6-33,16.2-32.398,34.8c0.6,18,15.6,32.4,33.6,32.4h1.2c13.201-0.601,24.601-9,29.4-20.4h10.8
		c45.6,0,88.799,13.2,127.799,39.001c30,19.8,51.602,45.6,63.602,76.8c10.199,25.2,9.6,49.8-1.201,70.8
		c-16.799,31.801-45,49.2-82.199,49.2c-24,0-46.801-7.2-58.801-12.601c-6.6,6-18.6,15.601-27,21.601
		c25.801,12,52.199,18.601,77.4,18.601c57.6,0,100.199-31.801,116.4-63.601C498.874,329.857,497.673,269.857,452.673,218.857
		L452.673,218.857z"/>
	<path fill="#764ABC" d="M147.873,303.457c0.6,18,15.6,32.4,33.6,32.4h1.2c18.6-0.601,33-16.2,32.398-34.801
		c-0.6-18-15.6-32.399-33.6-32.399h-1.2c-1.2,0-3,0-4.2,0.601c-24.6-40.801-34.8-85.2-31.2-133.2c2.4-36,14.4-67.2,35.4-93
		c17.4-22.2,51-33,73.8-33.6c63.601-1.2,90.601,78,92.399,109.8c7.801,1.8,21,6,30,9c-7.199-97.2-67.199-147.6-124.8-147.6
		c-54,0-103.801,39-123.601,96.6c-27.6,76.8-9.6,150.601,24,208.8C149.073,290.257,147.273,296.857,147.873,303.457L147.873,303.457
		z"/>
</g>
</svg>
